# Tiled2Unity generated file. Do not modify by hand.
# Wavefront file for 'Tutorial_mesh_0001.obj'

# Vertices (Count = 724)
v 0 -480 0
v -32 -480 0
v -32 -448 0
v 0 -448 0
v -10 -480 0
v -42 -480 0
v -42 -448 0
v -10 -448 0
v -20 -480 0
v -52 -480 0
v -52 -448 0
v -20 -448 0
v -30 -480 0
v -62 -480 0
v -62 -448 0
v -30 -448 0
v -40 -480 0
v -72 -480 0
v -72 -448 0
v -40 -448 0
v -50 -480 0
v -82 -480 0
v -82 -448 0
v -50 -448 0
v -60 -480 0
v -92 -480 0
v -92 -448 0
v -60 -448 0
v 0 -470 0
v -32 -470 0
v -32 -438 0
v 0 -438 0
v -10 -470 0
v -42 -470 0
v -42 -438 0
v -10 -438 0
v -20 -470 0
v -52 -470 0
v -52 -438 0
v -20 -438 0
v -30 -470 0
v -62 -470 0
v -62 -438 0
v -30 -438 0
v -40 -470 0
v -72 -470 0
v -72 -438 0
v -40 -438 0
v -50 -470 0
v -82 -470 0
v -82 -438 0
v -50 -438 0
v -60 -470 0
v -92 -470 0
v -92 -438 0
v -60 -438 0
v 0 -460 0
v -32 -460 0
v -32 -428 0
v 0 -428 0
v -10 -460 0
v -42 -460 0
v -42 -428 0
v -10 -428 0
v -20 -460 0
v -52 -460 0
v -52 -428 0
v -20 -428 0
v -30 -460 0
v -62 -460 0
v -62 -428 0
v -30 -428 0
v -40 -460 0
v -72 -460 0
v -72 -428 0
v -40 -428 0
v -50 -460 0
v -82 -460 0
v -82 -428 0
v -50 -428 0
v -60 -460 0
v -92 -460 0
v -92 -428 0
v -60 -428 0
v 0 -450 0
v -32 -450 0
v -32 -418 0
v 0 -418 0
v -10 -450 0
v -42 -450 0
v -42 -418 0
v -10 -418 0
v -20 -450 0
v -52 -450 0
v -52 -418 0
v -20 -418 0
v -30 -450 0
v -62 -450 0
v -62 -418 0
v -30 -418 0
v -40 -450 0
v -72 -450 0
v -72 -418 0
v -40 -418 0
v -50 -450 0
v -82 -450 0
v -82 -418 0
v -50 -418 0
v -60 -450 0
v -92 -450 0
v -92 -418 0
v -60 -418 0
v -120 -430 0
v -152 -430 0
v -152 -398 0
v -120 -398 0
v -130 -430 0
v -162 -430 0
v -162 -398 0
v -130 -398 0
v -140 -430 0
v -172 -430 0
v -172 -398 0
v -140 -398 0
v -150 -430 0
v -182 -430 0
v -182 -398 0
v -150 -398 0
v -120 -420 0
v -152 -420 0
v -152 -388 0
v -120 -388 0
v -130 -420 0
v -162 -420 0
v -162 -388 0
v -130 -388 0
v -140 -420 0
v -172 -420 0
v -172 -388 0
v -140 -388 0
v -150 -420 0
v -182 -420 0
v -182 -388 0
v -150 -388 0
v -210 -410 0
v -242 -410 0
v -242 -378 0
v -210 -378 0
v -220 -410 0
v -252 -410 0
v -252 -378 0
v -220 -378 0
v -230 -410 0
v -262 -410 0
v -262 -378 0
v -230 -378 0
v -240 -410 0
v -272 -410 0
v -272 -378 0
v -240 -378 0
v -250 -410 0
v -282 -410 0
v -282 -378 0
v -250 -378 0
v -260 -410 0
v -292 -410 0
v -292 -378 0
v -260 -378 0
v -270 -410 0
v -302 -410 0
v -302 -378 0
v -270 -378 0
v -280 -410 0
v -312 -410 0
v -312 -378 0
v -280 -378 0
v -290 -410 0
v -322 -410 0
v -322 -378 0
v -290 -378 0
v -300 -410 0
v -332 -410 0
v -332 -378 0
v -300 -378 0
v -210 -400 0
v -242 -400 0
v -242 -368 0
v -210 -368 0
v -220 -400 0
v -252 -400 0
v -252 -368 0
v -220 -368 0
v -230 -400 0
v -262 -400 0
v -262 -368 0
v -230 -368 0
v -240 -400 0
v -272 -400 0
v -272 -368 0
v -240 -368 0
v -250 -400 0
v -282 -400 0
v -282 -368 0
v -250 -368 0
v -260 -400 0
v -292 -400 0
v -292 -368 0
v -260 -368 0
v -270 -400 0
v -302 -400 0
v -302 -368 0
v -270 -368 0
v -280 -400 0
v -312 -400 0
v -312 -368 0
v -280 -368 0
v -290 -400 0
v -322 -400 0
v -322 -368 0
v -290 -368 0
v -300 -400 0
v -332 -400 0
v -332 -368 0
v -300 -368 0
v -380 -370 0
v -412 -370 0
v -412 -338 0
v -380 -338 0
v -390 -370 0
v -422 -370 0
v -422 -338 0
v -390 -338 0
v -400 -370 0
v -432 -370 0
v -432 -338 0
v -400 -338 0
v -410 -370 0
v -442 -370 0
v -442 -338 0
v -410 -338 0
v -420 -370 0
v -452 -370 0
v -452 -338 0
v -420 -338 0
v -430 -370 0
v -462 -370 0
v -462 -338 0
v -430 -338 0
v -440 -370 0
v -472 -370 0
v -472 -338 0
v -440 -338 0
v -380 -360 0
v -412 -360 0
v -412 -328 0
v -380 -328 0
v -390 -360 0
v -422 -360 0
v -422 -328 0
v -390 -328 0
v -400 -360 0
v -432 -360 0
v -432 -328 0
v -400 -328 0
v -410 -360 0
v -442 -360 0
v -442 -328 0
v -410 -328 0
v -420 -360 0
v -452 -360 0
v -452 -328 0
v -420 -328 0
v -430 -360 0
v -462 -360 0
v -462 -328 0
v -430 -328 0
v -440 -360 0
v -472 -360 0
v -472 -328 0
v -440 -328 0
v -590 -340 0
v -622 -340 0
v -622 -308 0
v -590 -308 0
v -600 -340 0
v -632 -340 0
v -632 -308 0
v -600 -308 0
v -610 -340 0
v -642 -340 0
v -642 -308 0
v -610 -308 0
v -590 -330 0
v -622 -330 0
v -622 -298 0
v -590 -298 0
v -600 -330 0
v -632 -330 0
v -632 -298 0
v -600 -298 0
v -610 -330 0
v -642 -330 0
v -642 -298 0
v -610 -298 0
v -600 -320 0
v -632 -320 0
v -632 -288 0
v -600 -288 0
v -610 -320 0
v -642 -320 0
v -642 -288 0
v -610 -288 0
v -600 -310 0
v -632 -310 0
v -632 -278 0
v -600 -278 0
v -610 -310 0
v -642 -310 0
v -642 -278 0
v -610 -278 0
v -590 -300 0
v -622 -300 0
v -622 -268 0
v -590 -268 0
v -600 -300 0
v -632 -300 0
v -632 -268 0
v -600 -268 0
v -610 -300 0
v -642 -300 0
v -642 -268 0
v -610 -268 0
v -140 -280 0
v -172 -280 0
v -172 -248 0
v -140 -248 0
v -150 -280 0
v -182 -280 0
v -182 -248 0
v -150 -248 0
v -160 -280 0
v -192 -280 0
v -192 -248 0
v -160 -248 0
v -170 -280 0
v -202 -280 0
v -202 -248 0
v -170 -248 0
v -180 -280 0
v -212 -280 0
v -212 -248 0
v -180 -248 0
v -190 -280 0
v -222 -280 0
v -222 -248 0
v -190 -248 0
v -200 -280 0
v -232 -280 0
v -232 -248 0
v -200 -248 0
v -140 -270 0
v -172 -270 0
v -172 -238 0
v -140 -238 0
v -150 -270 0
v -182 -270 0
v -182 -238 0
v -150 -238 0
v -160 -270 0
v -192 -270 0
v -192 -238 0
v -160 -238 0
v -170 -270 0
v -202 -270 0
v -202 -238 0
v -170 -238 0
v -180 -270 0
v -212 -270 0
v -212 -238 0
v -180 -238 0
v -190 -270 0
v -222 -270 0
v -222 -238 0
v -190 -238 0
v -200 -270 0
v -232 -270 0
v -232 -238 0
v -200 -238 0
v -20 -210 0
v -52 -210 0
v -52 -178 0
v -20 -178 0
v -30 -210 0
v -62 -210 0
v -62 -178 0
v -30 -178 0
v -40 -210 0
v -72 -210 0
v -72 -178 0
v -40 -178 0
v -50 -210 0
v -82 -210 0
v -82 -178 0
v -50 -178 0
v -60 -210 0
v -92 -210 0
v -92 -178 0
v -60 -178 0
v -70 -210 0
v -102 -210 0
v -102 -178 0
v -70 -178 0
v -80 -210 0
v -112 -210 0
v -112 -178 0
v -80 -178 0
v -90 -210 0
v -122 -210 0
v -122 -178 0
v -90 -178 0
v -100 -210 0
v -132 -210 0
v -132 -178 0
v -100 -178 0
v -110 -210 0
v -142 -210 0
v -142 -178 0
v -110 -178 0
v -770 -210 0
v -802 -210 0
v -802 -178 0
v -770 -178 0
v -780 -210 0
v -812 -210 0
v -812 -178 0
v -780 -178 0
v -790 -210 0
v -822 -210 0
v -822 -178 0
v -790 -178 0
v -800 -210 0
v -832 -210 0
v -832 -178 0
v -800 -178 0
v -20 -200 0
v -52 -200 0
v -52 -168 0
v -20 -168 0
v -30 -200 0
v -62 -200 0
v -62 -168 0
v -30 -168 0
v -40 -200 0
v -72 -200 0
v -72 -168 0
v -40 -168 0
v -50 -200 0
v -82 -200 0
v -82 -168 0
v -50 -168 0
v -60 -200 0
v -92 -200 0
v -92 -168 0
v -60 -168 0
v -70 -200 0
v -102 -200 0
v -102 -168 0
v -70 -168 0
v -80 -200 0
v -112 -200 0
v -112 -168 0
v -80 -168 0
v -90 -200 0
v -122 -200 0
v -122 -168 0
v -90 -168 0
v -100 -200 0
v -132 -200 0
v -132 -168 0
v -100 -168 0
v -110 -200 0
v -142 -200 0
v -142 -168 0
v -110 -168 0
v -770 -200 0
v -802 -200 0
v -802 -168 0
v -770 -168 0
v -780 -200 0
v -812 -200 0
v -812 -168 0
v -780 -168 0
v -790 -200 0
v -822 -200 0
v -822 -168 0
v -790 -168 0
v -800 -200 0
v -832 -200 0
v -832 -168 0
v -800 -168 0
v -220 -170 0
v -252 -170 0
v -252 -138 0
v -220 -138 0
v -230 -170 0
v -262 -170 0
v -262 -138 0
v -230 -138 0
v -240 -170 0
v -272 -170 0
v -272 -138 0
v -240 -138 0
v -250 -170 0
v -282 -170 0
v -282 -138 0
v -250 -138 0
v -220 -160 0
v -252 -160 0
v -252 -128 0
v -220 -128 0
v -230 -160 0
v -262 -160 0
v -262 -128 0
v -230 -128 0
v -240 -160 0
v -272 -160 0
v -272 -128 0
v -240 -128 0
v -250 -160 0
v -282 -160 0
v -282 -128 0
v -250 -128 0
v -630 -150 0
v -662 -150 0
v -662 -118 0
v -630 -118 0
v -640 -150 0
v -672 -150 0
v -672 -118 0
v -640 -118 0
v -650 -150 0
v -682 -150 0
v -682 -118 0
v -650 -118 0
v -660 -150 0
v -692 -150 0
v -692 -118 0
v -660 -118 0
v -670 -150 0
v -702 -150 0
v -702 -118 0
v -670 -118 0
v -680 -150 0
v -712 -150 0
v -712 -118 0
v -680 -118 0
v -690 -150 0
v -722 -150 0
v -722 -118 0
v -690 -118 0
v -340 -140 0
v -372 -140 0
v -372 -108 0
v -340 -108 0
v -350 -140 0
v -382 -140 0
v -382 -108 0
v -350 -108 0
v -360 -140 0
v -392 -140 0
v -392 -108 0
v -360 -108 0
v -370 -140 0
v -402 -140 0
v -402 -108 0
v -370 -108 0
v -380 -140 0
v -412 -140 0
v -412 -108 0
v -380 -108 0
v -390 -140 0
v -422 -140 0
v -422 -108 0
v -390 -108 0
v -400 -140 0
v -432 -140 0
v -432 -108 0
v -400 -108 0
v -630 -140 0
v -662 -140 0
v -662 -108 0
v -630 -108 0
v -640 -140 0
v -672 -140 0
v -672 -108 0
v -640 -108 0
v -650 -140 0
v -682 -140 0
v -682 -108 0
v -650 -108 0
v -660 -140 0
v -692 -140 0
v -692 -108 0
v -660 -108 0
v -670 -140 0
v -702 -140 0
v -702 -108 0
v -670 -108 0
v -680 -140 0
v -712 -140 0
v -712 -108 0
v -680 -108 0
v -690 -140 0
v -722 -140 0
v -722 -108 0
v -690 -108 0
v -340 -130 0
v -372 -130 0
v -372 -98 0
v -340 -98 0
v -350 -130 0
v -382 -130 0
v -382 -98 0
v -350 -98 0
v -360 -130 0
v -392 -130 0
v -392 -98 0
v -360 -98 0
v -370 -130 0
v -402 -130 0
v -402 -98 0
v -370 -98 0
v -380 -130 0
v -412 -130 0
v -412 -98 0
v -380 -98 0
v -390 -130 0
v -422 -130 0
v -422 -98 0
v -390 -98 0
v -400 -130 0
v -432 -130 0
v -432 -98 0
v -400 -98 0
v -460 -110 0
v -492 -110 0
v -492 -78 0
v -460 -78 0
v -470 -110 0
v -502 -110 0
v -502 -78 0
v -470 -78 0
v -480 -110 0
v -512 -110 0
v -512 -78 0
v -480 -78 0
v -490 -110 0
v -522 -110 0
v -522 -78 0
v -490 -78 0
v -500 -110 0
v -532 -110 0
v -532 -78 0
v -500 -78 0
v -510 -110 0
v -542 -110 0
v -542 -78 0
v -510 -78 0
v -520 -110 0
v -552 -110 0
v -552 -78 0
v -520 -78 0
v -530 -110 0
v -562 -110 0
v -562 -78 0
v -530 -78 0
v -540 -110 0
v -572 -110 0
v -572 -78 0
v -540 -78 0
v -550 -110 0
v -582 -110 0
v -582 -78 0
v -550 -78 0
v -460 -100 0
v -492 -100 0
v -492 -68 0
v -460 -68 0
v -470 -100 0
v -502 -100 0
v -502 -68 0
v -470 -68 0
v -480 -100 0
v -512 -100 0
v -512 -68 0
v -480 -68 0
v -490 -100 0
v -522 -100 0
v -522 -68 0
v -490 -68 0
v -500 -100 0
v -532 -100 0
v -532 -68 0
v -500 -68 0
v -510 -100 0
v -542 -100 0
v -542 -68 0
v -510 -68 0
v -520 -100 0
v -552 -100 0
v -552 -68 0
v -520 -68 0
v -530 -100 0
v -562 -100 0
v -562 -68 0
v -530 -68 0
v -540 -100 0
v -572 -100 0
v -572 -68 0
v -540 -68 0
v -550 -100 0
v -582 -100 0
v -582 -68 0
v -550 -68 0

# Texture cooridinates (Count = 27)
vt 0.3333333 0.8947368
vt 0.4166667 0.8947368
vt 0.4166667 0.9473684
vt 0.3333333 0.9473684
vt 0.5 0.8947368
vt 0.5 0.9473684
vt 0.5833333 0.8947368
vt 0.5833333 0.9473684
vt 0.5 1
vt 0.4166667 1
vt 0.75 0.8947368
vt 0.8333333 0.8947368
vt 0.8333333 0.9473684
vt 0.75 0.9473684
vt 0.25 0.8421053
vt 0.3333333 0.8421053
vt 0.25 0.8947368
vt 0.6666667 0.8947368
vt 0.6666667 0.9473684
vt 0.5 0.8421053
vt 0.5833333 0.8421053
vt 0.3333333 1
vt 0.25 0.9473684
vt 0.1666667 0.1052632
vt 0.25 0.1052632
vt 0.25 0.1578947
vt 0.1666667 0.1578947

# Normal
vn 0 0 -1

# Mesh description
g Tutorial_mesh_0001

# Faces
f 1/1/1 2/2/1 3/3/1 4/4/1
f 5/2/1 6/5/1 7/6/1 8/3/1
f 9/2/1 10/5/1 11/6/1 12/3/1
f 13/2/1 14/5/1 15/6/1 16/3/1
f 17/2/1 18/5/1 19/6/1 20/3/1
f 21/2/1 22/5/1 23/6/1 24/3/1
f 25/5/1 26/7/1 27/8/1 28/6/1
f 29/1/1 30/2/1 31/3/1 32/4/1
f 33/2/1 34/5/1 35/6/1 36/3/1
f 37/2/1 38/5/1 39/6/1 40/3/1
f 41/2/1 42/5/1 43/6/1 44/3/1
f 45/2/1 46/5/1 47/6/1 48/3/1
f 49/2/1 50/5/1 51/6/1 52/3/1
f 53/5/1 54/7/1 55/8/1 56/6/1
f 57/1/1 58/2/1 59/3/1 60/4/1
f 61/2/1 62/5/1 63/6/1 64/3/1
f 65/2/1 66/5/1 67/6/1 68/3/1
f 69/2/1 70/5/1 71/6/1 72/3/1
f 73/2/1 74/5/1 75/6/1 76/3/1
f 77/2/1 78/5/1 79/6/1 80/3/1
f 81/5/1 82/7/1 83/8/1 84/6/1
f 85/3/1 86/6/1 87/9/1 88/10/1
f 89/3/1 90/6/1 91/9/1 92/10/1
f 93/3/1 94/6/1 95/9/1 96/10/1
f 97/3/1 98/6/1 99/9/1 100/10/1
f 101/3/1 102/6/1 103/9/1 104/10/1
f 105/3/1 106/6/1 107/9/1 108/10/1
f 109/11/1 110/12/1 111/13/1 112/14/1
f 113/15/1 114/16/1 115/1/1 116/17/1
f 117/7/1 118/18/1 119/19/1 120/8/1
f 121/7/1 122/18/1 123/19/1 124/8/1
f 125/20/1 126/21/1 127/7/1 128/5/1
f 129/18/1 130/11/1 131/14/1 132/19/1
f 133/4/1 134/3/1 135/10/1 136/22/1
f 137/4/1 138/3/1 139/10/1 140/22/1
f 141/11/1 142/12/1 143/13/1 144/14/1
f 145/15/1 146/16/1 147/1/1 148/17/1
f 149/7/1 150/18/1 151/19/1 152/8/1
f 153/7/1 154/18/1 155/19/1 156/8/1
f 157/7/1 158/18/1 159/19/1 160/8/1
f 161/7/1 162/18/1 163/19/1 164/8/1
f 165/7/1 166/18/1 167/19/1 168/8/1
f 169/7/1 170/18/1 171/19/1 172/8/1
f 173/7/1 174/18/1 175/19/1 176/8/1
f 177/7/1 178/18/1 179/19/1 180/8/1
f 181/20/1 182/21/1 183/7/1 184/5/1
f 185/18/1 186/11/1 187/14/1 188/19/1
f 189/4/1 190/3/1 191/10/1 192/22/1
f 193/4/1 194/3/1 195/10/1 196/22/1
f 197/4/1 198/3/1 199/10/1 200/22/1
f 201/4/1 202/3/1 203/10/1 204/22/1
f 205/4/1 206/3/1 207/10/1 208/22/1
f 209/4/1 210/3/1 211/10/1 212/22/1
f 213/4/1 214/3/1 215/10/1 216/22/1
f 217/4/1 218/3/1 219/10/1 220/22/1
f 221/11/1 222/12/1 223/13/1 224/14/1
f 225/15/1 226/16/1 227/1/1 228/17/1
f 229/7/1 230/18/1 231/19/1 232/8/1
f 233/7/1 234/18/1 235/19/1 236/8/1
f 237/7/1 238/18/1 239/19/1 240/8/1
f 241/7/1 242/18/1 243/19/1 244/8/1
f 245/7/1 246/18/1 247/19/1 248/8/1
f 249/20/1 250/21/1 251/7/1 252/5/1
f 253/18/1 254/11/1 255/14/1 256/19/1
f 257/4/1 258/3/1 259/10/1 260/22/1
f 261/4/1 262/3/1 263/10/1 264/22/1
f 265/3/1 266/6/1 267/9/1 268/10/1
f 269/3/1 270/6/1 271/9/1 272/10/1
f 273/3/1 274/6/1 275/9/1 276/10/1
f 277/11/1 278/12/1 279/13/1 280/14/1
f 281/15/1 282/16/1 283/1/1 284/17/1
f 285/7/1 286/18/1 287/19/1 288/8/1
f 289/20/1 290/21/1 291/7/1 292/5/1
f 293/18/1 294/11/1 295/14/1 296/19/1
f 297/1/1 298/2/1 299/3/1 300/4/1
f 301/5/1 302/7/1 303/8/1 304/6/1
f 305/17/1 306/1/1 307/4/1 308/23/1
f 309/5/1 310/7/1 311/8/1 312/6/1
f 313/17/1 314/1/1 315/4/1 316/23/1
f 317/5/1 318/7/1 319/8/1 320/6/1
f 321/24/1 322/25/1 323/26/1 324/27/1
f 325/18/1 326/11/1 327/14/1 328/19/1
f 329/11/1 330/12/1 331/13/1 332/14/1
f 333/15/1 334/16/1 335/1/1 336/17/1
f 337/7/1 338/18/1 339/19/1 340/8/1
f 341/7/1 342/18/1 343/19/1 344/8/1
f 345/7/1 346/18/1 347/19/1 348/8/1
f 349/7/1 350/18/1 351/19/1 352/8/1
f 353/7/1 354/18/1 355/19/1 356/8/1
f 357/20/1 358/21/1 359/7/1 360/5/1
f 361/18/1 362/11/1 363/14/1 364/19/1
f 365/4/1 366/3/1 367/10/1 368/22/1
f 369/4/1 370/3/1 371/10/1 372/22/1
f 373/3/1 374/6/1 375/9/1 376/10/1
f 377/3/1 378/6/1 379/9/1 380/10/1
f 381/3/1 382/6/1 383/9/1 384/10/1
f 385/11/1 386/12/1 387/13/1 388/14/1
f 389/15/1 390/16/1 391/1/1 392/17/1
f 393/7/1 394/18/1 395/19/1 396/8/1
f 397/7/1 398/18/1 399/19/1 400/8/1
f 401/7/1 402/18/1 403/19/1 404/8/1
f 405/7/1 406/18/1 407/19/1 408/8/1
f 409/7/1 410/18/1 411/19/1 412/8/1
f 413/7/1 414/18/1 415/19/1 416/8/1
f 417/7/1 418/18/1 419/19/1 420/8/1
f 421/7/1 422/18/1 423/19/1 424/8/1
f 425/20/1 426/21/1 427/7/1 428/5/1
f 429/15/1 430/16/1 431/1/1 432/17/1
f 433/7/1 434/18/1 435/19/1 436/8/1
f 437/7/1 438/18/1 439/19/1 440/8/1
f 441/20/1 442/21/1 443/7/1 444/5/1
f 445/18/1 446/11/1 447/14/1 448/19/1
f 449/4/1 450/3/1 451/10/1 452/22/1
f 453/4/1 454/3/1 455/10/1 456/22/1
f 457/4/1 458/3/1 459/10/1 460/22/1
f 461/4/1 462/3/1 463/10/1 464/22/1
f 465/4/1 466/3/1 467/10/1 468/22/1
f 469/4/1 470/3/1 471/10/1 472/22/1
f 473/4/1 474/3/1 475/10/1 476/22/1
f 477/4/1 478/3/1 479/10/1 480/22/1
f 481/11/1 482/12/1 483/13/1 484/14/1
f 485/18/1 486/11/1 487/14/1 488/19/1
f 489/4/1 490/3/1 491/10/1 492/22/1
f 493/4/1 494/3/1 495/10/1 496/22/1
f 497/11/1 498/12/1 499/13/1 500/14/1
f 501/15/1 502/16/1 503/1/1 504/17/1
f 505/7/1 506/18/1 507/19/1 508/8/1
f 509/7/1 510/18/1 511/19/1 512/8/1
f 513/20/1 514/21/1 515/7/1 516/5/1
f 517/18/1 518/11/1 519/14/1 520/19/1
f 521/4/1 522/3/1 523/10/1 524/22/1
f 525/4/1 526/3/1 527/10/1 528/22/1
f 529/11/1 530/12/1 531/13/1 532/14/1
f 533/15/1 534/16/1 535/1/1 536/17/1
f 537/7/1 538/18/1 539/19/1 540/8/1
f 541/7/1 542/18/1 543/19/1 544/8/1
f 545/7/1 546/18/1 547/19/1 548/8/1
f 549/7/1 550/18/1 551/19/1 552/8/1
f 553/7/1 554/18/1 555/19/1 556/8/1
f 557/20/1 558/21/1 559/7/1 560/5/1
f 561/15/1 562/16/1 563/1/1 564/17/1
f 565/7/1 566/18/1 567/19/1 568/8/1
f 569/7/1 570/18/1 571/19/1 572/8/1
f 573/7/1 574/18/1 575/19/1 576/8/1
f 577/7/1 578/18/1 579/19/1 580/8/1
f 581/7/1 582/18/1 583/19/1 584/8/1
f 585/20/1 586/21/1 587/7/1 588/5/1
f 589/18/1 590/11/1 591/14/1 592/19/1
f 593/4/1 594/3/1 595/10/1 596/22/1
f 597/4/1 598/3/1 599/10/1 600/22/1
f 601/3/1 602/6/1 603/9/1 604/10/1
f 605/3/1 606/6/1 607/9/1 608/10/1
f 609/3/1 610/6/1 611/9/1 612/10/1
f 613/11/1 614/12/1 615/13/1 616/14/1
f 617/18/1 618/11/1 619/14/1 620/19/1
f 621/4/1 622/3/1 623/10/1 624/22/1
f 625/4/1 626/3/1 627/10/1 628/22/1
f 629/3/1 630/6/1 631/9/1 632/10/1
f 633/3/1 634/6/1 635/9/1 636/10/1
f 637/3/1 638/6/1 639/9/1 640/10/1
f 641/11/1 642/12/1 643/13/1 644/14/1
f 645/15/1 646/16/1 647/1/1 648/17/1
f 649/7/1 650/18/1 651/19/1 652/8/1
f 653/7/1 654/18/1 655/19/1 656/8/1
f 657/7/1 658/18/1 659/19/1 660/8/1
f 661/7/1 662/18/1 663/19/1 664/8/1
f 665/7/1 666/18/1 667/19/1 668/8/1
f 669/7/1 670/18/1 671/19/1 672/8/1
f 673/7/1 674/18/1 675/19/1 676/8/1
f 677/7/1 678/18/1 679/19/1 680/8/1
f 681/20/1 682/21/1 683/7/1 684/5/1
f 685/18/1 686/11/1 687/14/1 688/19/1
f 689/4/1 690/3/1 691/10/1 692/22/1
f 693/4/1 694/3/1 695/10/1 696/22/1
f 697/4/1 698/3/1 699/10/1 700/22/1
f 701/4/1 702/3/1 703/10/1 704/22/1
f 705/4/1 706/3/1 707/10/1 708/22/1
f 709/4/1 710/3/1 711/10/1 712/22/1
f 713/4/1 714/3/1 715/10/1 716/22/1
f 717/4/1 718/3/1 719/10/1 720/22/1
f 721/11/1 722/12/1 723/13/1 724/14/1

